<?xml version="1.0" encoding="UTF-8"?>
<svg width="647px" height="159px" viewBox="0 0 647 159" version="1.1" xmlns="http://www.w3.org/2000/svg" xmlns:xlink="http://www.w3.org/1999/xlink">
    <!-- Generator: Sketch 3.7.2 (28276) - http://www.bohemiancoding.com/sketch -->
    <title>logo_light_bg_horizontal</title>
    <desc>Created with Sketch.</desc>
    <defs></defs>
    <g id="Page-1" stroke="none" stroke-width="1" fill="none" fill-rule="evenodd">
        <g id="logo_light_bg_horizontal" transform="translate(2.000000, 2.000000)">
            <g id="logo_blue_white-copy">
                <polygon id="Fill-1" fill="#FFFFFF" points="150.413014 103.638035 122.817594 141.883658 88.8826957 155.377281 50.0914493 149.616586 14.4563768 122.713745 0.422405797 78.5348464 10.5654203 39.4587304 33.6428696 14.3766435 78.8542319 0.402208696 106.903333 4.5916 140.734986 33.9467304 155.740377 75.6642957"></polygon>
                <g id="logo" stroke="#45CDF0" stroke-width="3">
                    <path d="M33.6426435,14.3767188 L47.3314551,32.5895304" id="Fill-2"></path>
                    <path d="M33.6426435,14.3767188 L47.3314551,32.5895304" id="Stroke-3"></path>
                    <path d="M47.3318319,32.5894551 L78.0472522,1.32841159" id="Fill-5"></path>
                    <path d="M47.3318319,32.5894551 L78.0472522,1.32841159" id="Stroke-6"></path>
                    <path d="M34.0507304,15.6587826 L11.9567594,78.1288696" id="Fill-8"></path>
                    <path d="M34.0507304,15.6587826 L11.9567594,78.1288696" id="Stroke-9"></path>
                    <path d="M11.9568348,78.1287942 L14.5568348,122.713896" id="Fill-11"></path>
                    <path d="M11.9568348,78.1287942 L14.5568348,122.713896" id="Stroke-12"></path>
                    <path d="M11.9568348,78.1287942 L47.5956754,32.5896058" id="Fill-14"></path>
                    <path d="M11.9568348,78.1287942 L47.5956754,32.5896058" id="Stroke-15"></path>
                    <path d="M44.5686725,103.650545 L78.2360348,78.1290957" id="Fill-17"></path>
                    <path d="M44.5686725,103.650545 L78.2360348,78.1290957" id="Stroke-18"></path>
                    <path d="M78.2362609,78.1287942 L47.3316812,32.5896058" id="Fill-20"></path>
                    <path d="M78.2362609,78.1287942 L47.3316812,32.5896058" id="Stroke-21"></path>
                    <path d="M47.3318319,32.5894551 L90.9914841,42.0617449" id="Fill-23"></path>
                    <path d="M47.3318319,32.5894551 L90.9914841,42.0617449" id="Stroke-24"></path>
                    <path d="M90.9915594,42.0620464 L99.9370667,14.5020464" id="Fill-26"></path>
                    <path d="M90.9915594,42.0620464 L99.9370667,14.5020464" id="Stroke-27"></path>
                    <path d="M99.9372174,14.5021971 L47.332058,32.5891536" id="Fill-29"></path>
                    <path d="M99.9372174,14.5021971 L47.332058,32.5891536" id="Stroke-30"></path>
                    <path d="M99.9372174,14.5021971 L129.238841,42.0621971" id="Fill-32"></path>
                    <path d="M99.9372174,14.5021971 L129.238841,42.0621971" id="Stroke-33"></path>
                    <path d="M129.23869,42.0620464 L155.740603,75.6638435" id="Fill-35"></path>
                    <path d="M129.23869,42.0620464 L155.740603,75.6638435" id="Stroke-36"></path>
                    <path d="M155.740603,75.6641449 L110.447096,122.075275" id="Fill-38"></path>
                    <path d="M155.740603,75.6641449 L110.447096,122.075275" id="Stroke-39"></path>
                    <path d="M110.447397,122.075275 L122.817368,141.883507" id="Fill-41"></path>
                    <path d="M110.447397,122.075275 L122.817368,141.883507" id="Stroke-42"></path>
                    <path d="M110.447397,122.075275 L88.8824696,155.37713" id="Fill-44"></path>
                    <path d="M110.447397,122.075275 L88.8824696,155.37713" id="Stroke-45"></path>
                    <path d="M89.4997623,154.425907 L56.5792406,140.598429" id="Fill-47"></path>
                    <path d="M89.4997623,154.425907 L56.5792406,140.598429" id="Stroke-48"></path>
                    <path d="M56.5791652,140.598655 L15.7388174,122.306713" id="Fill-50"></path>
                    <path d="M56.5791652,140.598655 L15.7388174,122.306713" id="Stroke-51"></path>
                    <path d="M44.5686725,103.650545 L56.5791652,140.598429" id="Fill-53"></path>
                    <path d="M44.5686725,103.650545 L56.5791652,140.598429" id="Stroke-54"></path>
                    <path d="M56.5791652,140.598655 L110.447397,122.075351" id="Fill-56"></path>
                    <path d="M56.5791652,140.598655 L110.447397,122.075351" id="Stroke-57"></path>
                    <path d="M110.447397,122.075275 L44.5686725,103.650696" id="Fill-59"></path>
                    <path d="M110.447397,122.075275 L44.5686725,103.650696" id="Stroke-60"></path>
                    <path d="M78.2362609,78.1287942 L110.447623,122.075577" id="Fill-62"></path>
                    <path d="M78.2362609,78.1287942 L110.447623,122.075577" id="Stroke-63"></path>
                    <path d="M110.447397,122.075275 L114.587803,78.5354493" id="Fill-65"></path>
                    <path d="M110.447397,122.075275 L114.587803,78.5354493" id="Stroke-66"></path>
                    <polygon id="Fill-68" points="114.588029 79.7248 78.2362609 78"></polygon>
                    <path d="M78.2362609,78.1287942 L114.588029,79.5301942" id="Stroke-69"></path>
                    <path d="M114.696852,78.8111246 L155.230475,75.164342" id="Fill-70"></path>
                    <path d="M114.696852,78.8111246 L155.230475,75.164342" id="Stroke-71"></path>
                    <path d="M114.587954,78.5351478 L129.238388,42.0620464" id="Fill-73"></path>
                    <path d="M114.587954,78.5351478 L129.238388,42.0620464" id="Stroke-74"></path>
                    <path d="M90.9915594,42.0620464 L114.588255,78.5351478" id="Fill-76"></path>
                    <path d="M90.9915594,42.0620464 L114.588255,78.5351478" id="Stroke-77"></path>
                    <path d="M90.9915594,42.0620464 L78.236487,78.1289449" id="Fill-79"></path>
                    <path d="M90.9915594,42.0620464 L78.236487,78.1289449" id="Stroke-80"></path>
                    <path d="M99.9372174,14.5021971 L78.0474783,1.32811014" id="Fill-82"></path>
                    <path d="M99.9372174,14.5021971 L78.0474783,1.32811014" id="Stroke-83"></path>
                    <path d="M99.9372174,14.5021971 L106.902957,4.59129855" id="Fill-85"></path>
                    <path d="M99.9372174,14.5021971 L106.902957,4.59129855" id="Stroke-86"></path>
                    <polygon id="Fill-88" points="0.422481159 79.7248 11.9566841 78"></polygon>
                    <path d="M11.9568348,78.1287942 L0.422631884,79.5301942" id="Stroke-89"></path>
                    <path d="M56.5791652,140.598655 L50.0919768,149.61651" id="Fill-91"></path>
                    <path d="M56.5791652,140.598655 L50.0919768,149.61651" id="Stroke-92"></path>
                    <path d="M10.5654957,39.4589565 L13.1654957,78.1288696" id="Fill-94"></path>
                    <path d="M10.5654957,39.4589565 L13.1654957,78.1288696" id="Stroke-95"></path>
                    <path d="M110.447397,122.075275 L150.412788,103.637884" id="Fill-97"></path>
                    <path d="M110.447397,122.075275 L150.412788,103.637884" id="Stroke-98"></path>
                    <path d="M47.3318319,32.5894551 L44.5690493,103.650846" id="Fill-100"></path>
                    <path d="M47.3318319,32.5894551 L44.5690493,103.650846" id="Stroke-101"></path>
                    <path d="M11.9568348,78.1287942 L44.568371,103.650243" id="Fill-103"></path>
                    <path d="M11.9568348,78.1287942 L44.568371,103.650243" id="Stroke-104"></path>
                    <path d="M44.5686725,103.650545 L14.0514551,122.386371" id="Fill-106"></path>
                    <path d="M44.5686725,103.650545 L14.0514551,122.386371" id="Stroke-107"></path>
                    <polygon id="Fill-109" points="91.3033333 41 129.738116 41"></polygon>
                    <path d="M91.3036348,41 L129.738417,41" id="Stroke-110"></path>
                    <polygon id="Stroke-111" points="150.413014 103.638035 122.817594 141.883658 88.8826957 155.377281 50.0914493 149.616586 14.4563768 122.713745 0.422405797 78.5348464 10.5654203 39.4587304 33.6428696 14.3766435 78.8542319 0.402208696 106.903333 4.5916 140.734986 33.9467304 155.740377 75.6642957"></polygon>
                    <path d="M129.23869,42.0620464 L140.735212,33.9470319" id="Fill-113"></path>
                    <path d="M129.23869,42.0620464 L140.735212,33.9470319" id="Stroke-114"></path>
                    <path d="M99.9372174,14.5021971 L140.133217,33.9471826" id="Fill-116"></path>
                    <path d="M99.9372174,14.5021971 L140.133217,33.9471826" id="Stroke-117"></path>
                </g>
            </g>
            <g id="OMNI-LABS" transform="translate(176.000000, 46.000000)">
                <path d="M44.7589258,51.3994141 C47.9083556,47.4443162 49.4830469,41.8193724 49.4830469,34.5244141 C49.4830469,27.2587527 47.9083556,21.6411331 44.7589258,17.6713867 C41.609496,13.7016403 37.3541674,11.7167969 31.9928125,11.7167969 C26.6314576,11.7167969 22.3541566,13.6943162 19.1607813,17.6494141 C15.9674059,21.604512 14.3707422,27.2294557 14.3707422,34.5244141 C14.3707422,41.8193724 15.9674059,47.4443162 19.1607813,51.3994141 C22.3541566,55.354512 26.6314576,57.3320312 31.9928125,57.3320312 C37.3541674,57.3320312 41.609496,55.354512 44.7589258,51.3994141 L44.7589258,51.3994141 Z M53.2183984,61.2431641 C48.3257958,66.2822518 41.2506713,68.8017578 31.9928125,68.8017578 C22.7349537,68.8017578 15.6598292,66.2822518 10.7672266,61.2431641 C4.20469375,55.0614925 0.923476563,46.1553316 0.923476563,34.5244141 C0.923476563,22.6591204 4.20469375,13.7529594 10.7672266,7.80566406 C15.6598292,2.76657637 22.7349537,0.247070312 31.9928125,0.247070312 C41.2506713,0.247070312 48.3257958,2.76657637 53.2183984,7.80566406 C59.7516342,13.7529594 63.0182031,22.6591204 63.0182031,34.5244141 C63.0182031,46.1553316 59.7516342,55.0614925 53.2183984,61.2431641 L53.2183984,61.2431641 Z M116.279922,2.22460938 L135.747695,2.22460938 L135.747695,67 L123.135391,67 L123.135391,23.1865234 C123.135391,21.9267515 123.150039,20.1616324 123.179336,17.8911133 C123.208633,15.6205941 123.223281,13.8701233 123.223281,12.6396484 L110.962539,67 L97.8228906,67 L85.6500391,12.6396484 C85.6500391,13.8701233 85.6646874,15.6205941 85.6939844,17.8911133 C85.7232814,20.1616324 85.7379297,21.9267515 85.7379297,23.1865234 L85.7379297,67 L73.125625,67 L73.125625,2.22460938 L92.813125,2.22460938 L104.590469,53.1572266 L116.279922,2.22460938 Z M148.096328,2.22460938 L162.290664,2.22460938 L188.086563,47.4443359 L188.086563,2.22460938 L200.698867,2.22460938 L200.698867,67 L187.163711,67 L160.708633,20.9892578 L160.708633,67 L148.096328,67 L148.096328,2.22460938 Z M225.70375,67 L212.256484,67 L212.256484,2.22460938 L225.70375,2.22460938 L225.70375,67 Z" id="OMNI" fill="#201F20"></path>
                <path d="M254.38,67 L254.38,2.2 L260.5,2.2 L260.5,61.78 L295.24,61.78 L295.24,67 L254.38,67 Z M298.48,67 L323.95,2.2 L330.88,2.2 L355.72,67 L349.42,67 L341.95,46.66 L312.43,46.66 L304.78,67 L298.48,67 Z M314.5,41.44 L339.88,41.44 L327.19,7.42 L314.5,41.44 Z M370.57,61.78 L386.14,61.78 C389.500017,61.78 392.424988,61.6300015 394.915,61.33 C397.405012,61.0299985 399.459992,60.4150047 401.08,59.485 C402.700008,58.5549953 403.914996,57.2350086 404.725,55.525 C405.535004,53.8149915 405.94,51.5500141 405.94,48.73 C405.94,46.0299865 405.490004,43.8550082 404.59,42.205 C403.689995,40.5549917 402.400008,39.2800045 400.72,38.38 C399.039992,37.4799955 397.030012,36.8650016 394.69,36.535 C392.349988,36.2049984 389.740014,36.04 386.86,36.04 L370.57,36.04 L370.57,61.78 Z M370.57,30.82 L386.05,30.82 C389.230016,30.82 391.899989,30.5500027 394.06,30.01 C396.220011,29.4699973 397.959993,28.6750052 399.28,27.625 C400.600007,26.5749948 401.544997,25.2850077 402.115,23.755 C402.685003,22.2249924 402.97,20.4700099 402.97,18.49 C402.97,16.4499898 402.640003,14.7250071 401.98,13.315 C401.319997,11.904993 400.270007,10.7650043 398.83,9.895 C397.389993,9.02499565 395.515012,8.39500195 393.205,8.005 C390.894988,7.61499805 388.060017,7.42 384.7,7.42 L370.57,7.42 L370.57,30.82 Z M364.45,67 L364.45,2.2 L387.85,2.2 C391.630019,2.2 394.869986,2.5899961 397.57,3.37 C400.270014,4.1500039 402.474991,5.2599928 404.185,6.7 C405.895009,8.1400072 407.139996,9.86498995 407.92,11.875 C408.700004,13.8850101 409.09,16.089988 409.09,18.49 C409.09,20.7700114 408.790003,22.7349917 408.19,24.385 C407.589997,26.0350083 406.810005,27.4149944 405.85,28.525 C404.889995,29.6350056 403.795006,30.5049968 402.565,31.135 C401.334994,31.7650031 400.060007,32.1999988 398.74,32.44 L398.74,32.62 C403.240022,33.2800033 406.584989,35.0499856 408.775,37.93 C410.965011,40.8100144 412.06,44.4099784 412.06,48.73 C412.06,52.0900168 411.535005,54.9399883 410.485,57.28 C409.434995,59.6200117 407.980009,61.5099928 406.12,62.95 C404.259991,64.3900072 402.025013,65.4249968 399.415,66.055 C396.804987,66.6850032 393.970015,67 390.91,67 L364.45,67 Z M427,47.65 C427.240001,50.5300144 427.884995,52.97499 428.935,54.985 C429.985005,56.99501 431.334992,58.6299937 432.985,59.89 C434.635008,61.1500063 436.539989,62.0649971 438.7,62.635 C440.860011,63.2050028 443.169988,63.49 445.63,63.49 C448.510014,63.49 450.999989,63.1300036 453.1,62.41 C455.20001,61.6899964 456.909993,60.7150061 458.23,59.485 C459.550007,58.2549939 460.524997,56.8300081 461.155,55.21 C461.785003,53.5899919 462.1,51.880009 462.1,50.08 C462.1,47.5599874 461.530006,45.5200078 460.39,43.96 C459.249994,42.3999922 457.765009,41.125005 455.935,40.135 C454.104991,39.1449951 452.005012,38.350003 449.635,37.75 C447.264988,37.149997 444.835012,36.5650028 442.345,35.995 C439.854988,35.4249971 437.425012,34.7500039 435.055,33.97 C432.684988,33.1899961 430.585009,32.1400066 428.755,30.82 C426.924991,29.4999934 425.440006,27.8050104 424.3,25.735 C423.159994,23.6649896 422.59,21.0400159 422.59,17.86 C422.59,15.6399889 423.054995,13.4800105 423.985,11.38 C424.915005,9.2799895 426.294991,7.4200081 428.125,5.8 C429.955009,4.1799919 432.249986,2.8900048 435.01,1.93 C437.770014,0.9699952 440.949982,0.49 444.55,0.49 C448.210018,0.49 451.404986,0.9999949 454.135,2.02 C456.865014,3.0400051 459.129991,4.43499115 460.93,6.205 C462.730009,7.97500885 464.079995,10.0299883 464.98,12.37 C465.880004,14.7100117 466.33,17.1999868 466.33,19.84 L460.48,19.84 C460.48,17.3799877 460.045004,15.250009 459.175,13.45 C458.304996,11.649991 457.120007,10.1800057 455.62,9.04 C454.119992,7.8999943 452.41001,7.0600027 450.49,6.52 C448.56999,5.9799973 446.59001,5.71 444.55,5.71 C441.429984,5.71 438.805011,6.14499565 436.675,7.015 C434.544989,7.88500435 432.850006,9.0099931 431.59,10.39 C430.329994,11.7700069 429.460002,13.2999916 428.98,14.98 C428.499998,16.6600084 428.409998,18.3399916 428.71,20.02 C429.070002,22.1200105 429.909993,23.7999937 431.23,25.06 C432.550007,26.3200063 434.16999,27.354996 436.09,28.165 C438.01001,28.975004 440.124988,29.6349975 442.435,30.145 C444.745012,30.6550026 447.099988,31.1949972 449.5,31.765 C451.900012,32.3350029 454.224989,33.0099961 456.475,33.79 C458.725011,34.5700039 460.719991,35.6199934 462.46,36.94 C464.200009,38.2600066 465.594995,39.9549896 466.645,42.025 C467.695005,44.0950103 468.22,46.6899844 468.22,49.81 C468.22,55.81003 466.150021,60.4599835 462.01,63.76 C457.869979,67.0600165 452.050037,68.71 444.55,68.71 C441.189983,68.71 438.070014,68.2750044 435.19,67.405 C432.309986,66.5349956 429.82001,65.2150089 427.72,63.445 C425.619989,61.6749911 423.985006,59.485013 422.815,56.875 C421.644994,54.264987 421.06,51.1900177 421.06,47.65 L427,47.65 Z" id="LABS" fill="#1F1F1F"></path>
            </g>
        </g>
    </g>
</svg>