<?xml version="1.0" encoding="UTF-8"?>
<svg width="441px" height="145px" viewBox="0 0 441 145" version="1.1" xmlns="http://www.w3.org/2000/svg" xmlns:xlink="http://www.w3.org/1999/xlink">
    <!-- Generator: Sketch 3.7.2 (28276) - http://www.bohemiancoding.com/sketch -->
    <title>Zoom.aiAI</title>
    <desc>Created with Sketch.</desc>
    <defs></defs>
    <g id="Page-1" stroke="none" stroke-width="1" fill="none" fill-rule="evenodd">
        <g id="Zoom.aiAI">
            <path d="M420.862,0.585 L334.035,0.585 C323.001,0.585 313.974,9.624 313.974,20.646 L313.974,94.205 C313.974,105.227 323.013,114.266 334.035,114.266 L347.911,114.266 L339.374,135.758 C336.166,143.835 337.091,147.626 347.652,142.061 L400.396,114.266 L420.862,114.266 C431.889,114.266 440.924,105.239 440.924,94.205 L440.924,20.646 C440.924,9.612 431.896,0.585 420.862,0.585" id="Fill-3" fill="#006CA2"></path>
            <polyline id="Fill-4" fill="#343433" points="68.38 99.605 0.352 99.605 0.41 93.941 40.001 30.513 0.41 30.513 0.352 14.642 68.38 14.642 68.38 20.886 28.615 83.753 68.38 83.753 68.38 99.605"></polyline>
            <path d="M104.588,85.439 C109.234,85.439 113.005,83.897 115.88,80.772 C118.776,77.667 120.213,73.792 120.213,69.147 C120.213,64.501 118.776,60.626 115.88,57.501 C113.005,54.355 109.213,52.793 104.525,52.793 C99.942,52.793 96.192,54.355 93.296,57.501 C90.421,60.626 88.963,64.501 88.963,69.147 C88.963,73.792 90.421,77.667 93.296,80.772 C96.192,83.897 99.963,85.439 104.588,85.439 L104.588,85.439 Z M104.65,100.209 C95.775,100.209 88.38,97.23 82.442,91.272 C76.505,85.314 73.525,77.917 73.525,69.084 C73.525,60.209 76.505,52.813 82.442,46.876 C88.38,40.938 95.775,37.959 104.65,37.959 C113.525,37.959 120.921,40.938 126.879,46.876 C132.817,52.813 135.775,60.209 135.775,69.084 C135.775,77.959 132.817,85.355 126.879,91.314 C120.921,97.251 113.525,100.209 104.65,100.209 L104.65,100.209 Z" id="Fill-5" fill="#343433"></path>
            <path d="M171.666,85.439 C176.312,85.439 180.083,83.897 182.958,80.772 C185.854,77.667 187.291,73.792 187.291,69.147 C187.291,64.501 185.854,60.626 182.958,57.501 C180.083,54.355 176.291,52.793 171.604,52.793 C167.02,52.793 163.27,54.355 160.375,57.501 C157.5,60.626 156.041,64.501 156.041,69.147 C156.041,73.792 157.5,77.667 160.375,80.772 C163.27,83.897 167.041,85.439 171.666,85.439 L171.666,85.439 Z M171.729,100.209 C162.854,100.209 155.458,97.23 149.52,91.272 C143.583,85.314 140.604,77.917 140.604,69.084 C140.604,60.209 143.583,52.813 149.52,46.876 C155.458,40.938 162.854,37.959 171.729,37.959 C180.604,37.959 188,40.938 193.958,46.876 C199.896,52.813 202.854,60.209 202.854,69.084 C202.854,77.959 199.896,85.355 193.958,91.314 C188,97.251 180.604,100.209 171.729,100.209 L171.729,100.209 Z" id="Fill-6" fill="#343433"></path>
            <path d="M224.959,60.542 L224.959,99.605 L207.855,99.605 L207.855,40.334 L224.959,38.501 L224.959,43.938 C228.771,40.355 233.668,38.563 239.605,38.563 C247.334,38.563 253.23,40.918 257.293,45.584 C261.771,40.918 268.48,38.563 277.438,38.563 C285.167,38.563 291.063,40.918 295.146,45.584 C299.209,50.272 301.251,55.667 301.251,61.772 L301.251,99.605 L284.146,99.605 L284.146,66.043 C284.146,61.959 283.229,58.813 281.417,56.584 C279.584,54.334 276.605,53.147 272.501,53.043 C269.126,53.272 266.188,55.522 263.709,59.751 C263.501,61.001 263.396,62.293 263.396,63.584 L263.396,99.605 L246.313,99.605 L246.313,66.043 C246.313,61.959 245.396,58.813 243.563,56.584 C241.73,54.334 238.771,53.147 234.646,53.043 C230.918,53.272 227.667,55.772 224.959,60.542" id="Fill-7" fill="#343433"></path>
            <path d="M326.449,91.591 C326.449,94.069 327.274,96.145 328.927,97.796 C330.579,99.449 332.846,100.275 335.747,100.275 C338.649,100.275 340.916,99.449 342.567,97.796 C344.22,96.145 345.067,94.069 345.067,91.591 C345.067,89.113 344.22,87.037 342.567,85.342 C340.916,83.668 338.607,82.843 335.62,82.843 C332.804,82.843 330.579,83.668 328.927,85.342 C327.274,87.037 326.449,89.113 326.449,91.591" id="Fill-8" fill="#FFFFFF"></path>
            <path d="M387.246,81.657 L387.246,74.646 C385.594,71.469 381.654,69.859 375.448,69.859 C368.014,70.685 364.073,73.586 363.671,78.564 C364.073,83.478 368.014,86.147 375.448,86.571 C381.654,86.571 385.594,84.918 387.246,81.657 L387.246,81.657 Z M353.123,45.67 C360.981,40.692 370.067,38.214 380.426,38.214 C387.86,38.214 393.77,40.29 398.111,44.42 C402.454,48.572 404.614,54.778 404.614,63.039 L404.614,100.275 L387.246,100.275 L387.246,95.319 C382.205,98.623 377.65,100.275 373.584,100.275 C365.323,100.275 359.117,98.517 354.987,95 C350.835,91.485 348.781,86.613 348.781,80.407 C348.781,74.625 350.729,69.457 354.627,64.902 C358.545,60.349 364.857,58.082 373.584,58.082 C377.608,58.082 382.162,59.311 387.246,61.81 L387.246,59.946 C387.161,55.392 383.857,52.914 377.312,52.49 C369.877,52.49 364.073,53.74 359.943,56.218 L353.123,45.67 L353.123,45.67 Z" id="Fill-9" fill="#FFFFFF"></path>
            <path d="M409.83,23.324 C409.83,25.802 410.656,27.878 412.309,29.53 C413.961,31.182 416.227,32.008 419.129,32.008 C422.03,32.008 424.297,31.182 425.949,29.53 C427.622,27.878 428.448,25.802 428.448,23.324 C428.448,20.846 427.622,18.77 425.949,17.096 C424.297,15.423 421.988,14.576 419.002,14.576 C416.206,14.576 413.961,15.423 412.309,17.096 C410.656,18.77 409.83,20.846 409.83,23.324 L409.83,23.324 Z M410.444,100.275 L427.813,100.275 L427.813,38.15 L410.444,38.15 L410.444,100.275 Z" id="Fill-10" fill="#FFFFFF"></path>
        </g>
    </g>
</svg>