<?xml version="1.0" encoding="UTF-8"?>
<svg width="1971px" height="200px" viewBox="0 0 1971 200" version="1.1" xmlns="http://www.w3.org/2000/svg" xmlns:xlink="http://www.w3.org/1999/xlink">
    <!-- Generator: Sketch 3.7.2 (28276) - http://www.bohemiancoding.com/sketch -->
    <title>gdg-logo</title>
    <desc>Created with Sketch.</desc>
    <defs></defs>
    <g id="Page-1-Non-Edit" stroke="none" stroke-width="1" fill="none" fill-rule="evenodd">
        <g id="gdg-logo">
            <g id="Group">
                <g id="XMLID_261_" fill="#757575">
                    <polygon id="XMLID_259_" points="32.3 0 0 0 92.3 160 108.5 132"></polygon>
                    <path d="M120.9,91 L68.3,0 L36.1,0 L110.4,128.8 L120.9,110.6 C122.6,107.8 123.7,104.4 123.7,100.8 C123.6,97.2 122.6,93.9 120.9,91 L120.9,91 Z" id="XMLID_258_"></path>
                    <polygon id="XMLID_257_" points="56.3 104.1 0.9 200 33.2 200 72.5 132"></polygon>
                    <polygon id="XMLID_256_" points="74.3 135.3 37 200 69.2 200 90.5 163.2"></polygon>
                </g>
                <path d="M307.304221,104.072157 C307.304221,121.983445 301.990619,136.252557 291.363254,146.879921 C279.422396,159.537232 263.720402,165.865792 244.256802,165.865792 C225.629063,165.865792 209.867365,159.417825 196.971238,146.521697 C184.07511,133.62557 177.627143,117.744466 177.627143,98.8779091 C177.627143,80.0113523 184.07511,64.1302484 196.971238,51.2341209 C209.867365,38.3379935 225.629063,31.8900265 244.256802,31.8900265 C253.690081,31.8900265 262.585887,33.5617216 270.944488,36.9051621 C279.303089,40.2486025 286.16898,44.965171 291.542366,51.0550089 L279.720975,62.8764 C275.780492,58.1000565 270.675851,54.3685941 264.406901,51.6819009 C258.13795,48.9952077 251.421317,47.6518812 244.256802,47.6518812 C230.285997,47.6518812 218.464725,52.4878564 208.792629,62.159952 C199.239942,71.9514562 194.46367,84.1906528 194.46367,98.8779091 C194.46367,113.565165 199.239942,125.804362 208.792629,135.595866 C218.464725,145.267962 230.285997,150.103937 244.256802,150.103937 C257.033521,150.103937 267.660726,146.521733 276.138736,139.357218 C284.616745,132.192703 289.512424,122.341642 290.825918,109.80374 L244.256802,109.80374 L244.256802,94.4001095 L306.408661,94.4001095 C307.005704,97.7435499 307.304221,100.967533 307.304221,104.072157 L307.304221,104.072157 Z M327.364764,163 L327.364764,34.7558182 L366.590288,34.7558182 C386.173297,34.7558182 401.905142,40.6664546 413.786297,52.4879048 C425.667451,64.309355 431.607939,79.7725351 431.607939,98.8779091 C431.607939,118.102692 425.667451,133.595724 413.786297,145.357469 C401.905142,157.119215 386.173297,163 366.590288,163 L327.364764,163 Z M343.843066,50.517673 L343.843066,147.238145 L366.590288,147.238145 C381.516362,147.238145 393.277931,142.969352 401.87535,134.431638 C410.472768,125.893924 414.771413,114.0428 414.771413,98.8779091 C414.771413,83.8324271 410.472768,72.0111542 401.87535,63.4137359 C393.277931,54.8163176 381.516362,50.517673 366.590288,50.517673 L343.843066,50.517673 Z M574.539304,104.072157 C574.539304,121.983445 569.225701,136.252557 558.598337,146.879921 C546.657478,159.537232 530.955485,165.865792 511.491885,165.865792 C492.864145,165.865792 477.102448,159.417825 464.206321,146.521697 C451.310193,133.62557 444.862226,117.744466 444.862226,98.8779091 C444.862226,80.0113523 451.310193,64.1302484 464.206321,51.2341209 C477.102448,38.3379935 492.864145,31.8900265 511.491885,31.8900265 C520.925163,31.8900265 529.82097,33.5617216 538.179571,36.9051621 C546.538172,40.2486025 553.404063,44.965171 558.777449,51.0550089 L546.956058,62.8764 C543.015575,58.1000565 537.910934,54.3685941 531.641983,51.6819009 C525.373032,48.9952077 518.6564,47.6518812 511.491885,47.6518812 C497.52108,47.6518812 485.699807,52.4878564 476.027712,62.159952 C466.475025,71.9514562 461.698753,84.1906528 461.698753,98.8779091 C461.698753,113.565165 466.475025,125.804362 476.027712,135.595866 C485.699807,145.267962 497.52108,150.103937 511.491885,150.103937 C524.268604,150.103937 534.895809,146.521733 543.373818,139.357218 C551.851828,132.192703 556.747507,122.341642 558.061001,109.80374 L511.491885,109.80374 L511.491885,94.4001095 L573.643744,94.4001095 C574.240787,97.7435499 574.539304,100.967533 574.539304,104.072157 L574.539304,104.072157 Z M694.365222,165.865792 C675.379257,165.865792 659.498153,159.477528 646.721434,146.700809 C634.064124,133.92409 627.735564,117.983283 627.735564,98.8779091 C627.735564,79.7725351 634.064124,63.8914312 646.721434,51.2341209 C659.378744,38.3379935 675.259848,31.8900265 694.365222,31.8900265 C713.709413,31.8900265 729.411407,38.875324 741.471675,52.8461288 L729.650283,64.3092959 C720.455822,53.2042972 708.694253,47.6518812 694.365222,47.6518812 C680.1556,47.6518812 668.274624,52.4281531 658.721937,61.9808401 C649.288659,71.4141185 644.57209,83.7130185 644.57209,98.8779091 C644.57209,114.0428 649.288659,126.3417 658.721937,135.774978 C668.274624,145.327665 680.1556,150.103937 694.365222,150.103937 C709.291296,150.103937 722.246933,143.83508 733.232523,131.297179 L745.233026,142.939458 C739.143188,150.223381 731.680263,155.865353 722.844028,159.86554 C714.007793,163.865728 704.514952,165.865792 694.365222,165.865792 L694.365222,165.865792 Z M778.189632,34.7558182 L778.189632,163 L761.711329,163 L761.711329,34.7558182 L778.189632,34.7558182 Z M793.235038,119.117563 C793.235038,105.624393 797.47398,94.4598576 805.951989,85.6236222 C814.549408,76.7873867 825.355723,72.3693352 838.371259,72.3693352 C851.386795,72.3693352 862.133407,76.7873867 870.611416,85.6236222 C879.208835,94.4598576 883.507479,105.624393 883.507479,119.117563 C883.507479,132.730142 879.208835,143.894678 870.611416,152.611505 C862.133407,161.44774 851.386795,165.865792 838.371259,165.865792 C825.355723,165.865792 814.549408,161.44774 805.951989,152.611505 C797.47398,143.775269 793.235038,132.610734 793.235038,119.117563 L793.235038,119.117563 Z M809.713341,119.117563 C809.713341,128.550842 812.459697,136.192877 817.952492,142.043898 C823.445287,147.894918 830.251475,150.820385 838.371259,150.820385 C846.491043,150.820385 853.29723,147.894918 858.790025,142.043898 C864.28282,136.192877 867.029177,128.550842 867.029177,119.117563 C867.029177,109.803694 864.28282,102.221362 858.790025,96.3703413 C853.177822,90.3999119 846.371634,87.414742 838.371259,87.414742 C830.370883,87.414742 823.564696,90.3999119 817.952492,96.3703413 C812.459697,102.221362 809.713341,109.803694 809.713341,119.117563 L809.713341,119.117563 Z M975.57104,163 L959.809185,163 L959.809185,150.820385 L959.092737,150.820385 C956.585157,155.119094 952.734288,158.701298 947.540014,161.567104 C942.345741,164.43291 936.942583,165.865792 931.330379,165.865792 C920.583607,165.865792 912.314686,162.791067 906.523369,156.641525 C900.732053,150.491982 897.836438,141.745434 897.836438,130.401619 L897.836438,75.235127 L914.314741,75.235127 L914.314741,129.326947 C914.672967,143.655977 921.897078,150.820385 935.987291,150.820385 C942.554763,150.820385 948.047476,148.163584 952.465594,142.849902 C956.883711,137.536219 959.092737,131.177808 959.092737,123.774475 L959.092737,75.235127 L975.57104,75.235127 L975.57104,163 Z M1035.03622,150.820385 C1043.156,150.820385 1049.78308,147.894918 1054.91765,142.043898 C1060.29104,136.192877 1062.97769,128.550842 1062.97769,119.117563 C1062.97769,109.923102 1060.29104,102.340771 1054.91765,96.3703413 C1049.66367,90.3999119 1043.03659,87.414742 1035.03622,87.414742 C1027.15525,87.414742 1020.52818,90.3999119 1015.15479,96.3703413 C1009.7814,102.340771 1007.09475,109.923102 1007.09475,119.117563 C1007.09475,128.431433 1009.7814,136.013765 1015.15479,141.864786 C1020.52818,147.835215 1027.15525,150.820385 1035.03622,150.820385 L1035.03622,150.820385 Z M1032.34954,165.865792 C1020.88631,165.865792 1011.03525,161.328334 1002.79606,152.253281 C994.676278,143.05882 990.616447,132.013691 990.616447,119.117563 C990.616447,106.221436 994.676278,95.1763074 1002.79606,85.9818461 C1011.03525,76.9067935 1020.88631,72.3693352 1032.34954,72.3693352 C1038.7976,72.3693352 1044.67839,73.7425134 1049.99207,76.4889109 C1055.30575,79.2353084 1059.39543,82.8772157 1062.26124,87.414742 L1062.97769,87.414742 L1062.26124,75.235127 L1062.26124,34.7558182 L1078.73954,34.7558182 L1078.73954,163 L1062.97769,163 L1062.97769,150.820385 L1062.26124,150.820385 C1059.39543,155.357911 1055.30575,158.999819 1049.99207,161.746216 C1044.67839,164.492614 1038.7976,165.865792 1032.34954,165.865792 L1032.34954,165.865792 Z M1192.65477,163 L1175.46002,163 L1130.3238,34.7558182 L1148.59322,34.7558182 L1183.69917,138.819882 L1184.41562,138.819882 L1220.95446,34.7558182 L1239.22388,34.7558182 L1192.65477,163 Z M1263.404,136.133202 C1263.404,140.431911 1265.22495,144.014115 1268.86692,146.879921 C1272.50888,149.745727 1276.77767,151.178609 1281.67342,151.178609 C1288.59912,151.178609 1294.77842,148.611363 1300.21151,143.476794 C1305.6446,138.342224 1308.36111,132.312181 1308.36111,125.386483 C1303.22654,121.326591 1296.06213,119.296675 1286.86767,119.296675 C1280.18079,119.296675 1274.59852,120.908667 1270.1207,124.132699 C1265.64288,127.356731 1263.404,131.356859 1263.404,136.133202 L1263.404,136.133202 Z M1284.71833,72.3693352 C1296.898,72.3693352 1306.51025,75.6231704 1313.55536,82.1309384 C1320.60046,88.6387065 1324.12296,97.5643645 1324.12296,108.90818 L1324.12296,163 L1308.36111,163 L1308.36111,150.820385 L1307.64466,150.820385 C1300.83837,160.850706 1291.76346,165.865792 1280.41964,165.865792 C1270.74754,165.865792 1262.65773,163.000029 1256.14997,157.268416 C1249.6422,151.536804 1246.38836,144.372396 1246.38836,135.774978 C1246.38836,126.699926 1249.82131,119.475814 1256.6873,114.102428 C1263.5533,108.729041 1272.71777,106.042389 1284.18099,106.042389 C1293.9725,106.042389 1302.03245,107.83349 1308.36111,111.415748 L1308.36111,107.654396 C1308.36111,101.922784 1306.09238,97.0569573 1301.55485,93.0567696 C1297.01733,89.0565819 1291.70373,87.0565181 1285.61389,87.0565181 C1276.41943,87.0565181 1269.13561,90.9372389 1263.76222,98.6987971 L1249.25415,89.5640859 C1257.25453,78.1008615 1269.0758,72.3693352 1284.71833,72.3693352 L1284.71833,72.3693352 Z M1342.75061,75.235127 L1358.51247,75.235127 L1358.51247,87.414742 L1359.22891,87.414742 C1361.73649,83.1160329 1365.58736,79.533829 1370.78164,76.6680229 C1375.97591,73.8022168 1381.37907,72.3693352 1386.99127,72.3693352 C1397.73804,72.3693352 1406.00696,75.4440602 1411.79828,81.5936025 C1417.5896,87.7431447 1420.48521,96.4896926 1420.48521,107.833508 L1420.48521,163 L1404.00691,163 L1404.00691,108.90818 C1403.64868,94.5791498 1396.42457,87.414742 1382.33436,87.414742 C1375.76689,87.414742 1370.27417,90.0715432 1365.85606,95.3852254 C1361.43794,100.698908 1359.22891,107.057319 1359.22891,114.460652 L1359.22891,163 L1342.75061,163 L1342.75061,75.235127 Z M1479.95039,165.865792 C1466.93486,165.865792 1456.12854,161.44774 1447.53112,152.611505 C1439.05311,143.536452 1434.81417,132.371917 1434.81417,119.117563 C1434.81417,105.624393 1439.05311,94.4598576 1447.53112,85.6236222 C1456.12854,76.7873867 1466.93486,72.3693352 1479.95039,72.3693352 C1488.90604,72.3693352 1496.72718,74.6082127 1503.41406,79.0860347 C1510.10094,83.5638567 1515.11603,89.7431584 1518.45947,97.6241252 L1503.41406,103.893045 C1498.75713,92.9074547 1490.57776,87.414742 1478.87572,87.414742 C1471.35298,87.414742 1464.84531,90.4596153 1459.35251,96.5494533 C1453.97913,102.639291 1451.29247,110.161919 1451.29247,119.117563 C1451.29247,128.073208 1453.97913,135.595836 1459.35251,141.685674 C1464.84531,147.775512 1471.35298,150.820385 1478.87572,150.820385 C1490.93599,150.820385 1499.41387,145.327672 1504.30962,134.342082 L1518.9968,140.611002 C1515.77277,148.491969 1510.72784,154.67127 1503.86184,159.149092 C1496.99585,163.626914 1489.02544,165.865792 1479.95039,165.865792 L1479.95039,165.865792 Z M1528.31063,119.117563 C1528.31063,105.624393 1532.54957,94.4598576 1541.02758,85.6236222 C1549.625,76.7873867 1560.43131,72.3693352 1573.44685,72.3693352 C1586.46238,72.3693352 1597.209,76.7873867 1605.68701,85.6236222 C1614.28442,94.4598576 1618.58307,105.624393 1618.58307,119.117563 C1618.58307,132.730142 1614.28442,143.894678 1605.68701,152.611505 C1597.209,161.44774 1586.46238,165.865792 1573.44685,165.865792 C1560.43131,165.865792 1549.625,161.44774 1541.02758,152.611505 C1532.54957,143.775269 1528.31063,132.610734 1528.31063,119.117563 L1528.31063,119.117563 Z M1544.78893,119.117563 C1544.78893,128.550842 1547.53529,136.192877 1553.02808,142.043898 C1558.52088,147.894918 1565.32706,150.820385 1573.44685,150.820385 C1581.56663,150.820385 1588.37282,147.894918 1593.86561,142.043898 C1599.35841,136.192877 1602.10477,128.550842 1602.10477,119.117563 C1602.10477,109.803694 1599.35841,102.221362 1593.86561,96.3703413 C1588.25341,90.3999119 1581.44722,87.414742 1573.44685,87.414742 C1565.44647,87.414742 1558.64029,90.3999119 1553.02808,96.3703413 C1547.53529,102.221362 1544.78893,109.803694 1544.78893,119.117563 L1544.78893,119.117563 Z M1710.64663,163 L1694.88477,163 L1694.88477,150.820385 L1694.16833,150.820385 C1691.66075,155.119094 1687.80988,158.701298 1682.6156,161.567104 C1677.42133,164.43291 1672.01817,165.865792 1666.40597,165.865792 C1655.6592,165.865792 1647.39028,162.791067 1641.59896,156.641525 C1635.80764,150.491982 1632.91203,141.745434 1632.91203,130.401619 L1632.91203,75.235127 L1649.39033,75.235127 L1649.39033,129.326947 C1649.74856,143.655977 1656.97267,150.820385 1671.06288,150.820385 C1677.63035,150.820385 1683.12307,148.163584 1687.54118,142.849902 C1691.9593,137.536219 1694.16833,131.177808 1694.16833,123.774475 L1694.16833,75.235127 L1710.64663,75.235127 L1710.64663,163 Z M1773.33582,163 L1756.85752,163 L1721.39335,75.235127 L1739.30455,75.235127 L1765.09667,143.297682 L1765.4549,143.297682 L1791.60525,75.235127 L1809.15822,75.235127 L1773.33582,163 Z M1859.30958,165.865792 C1846.41345,165.865792 1835.78625,161.44774 1827.42764,152.611505 C1819.06904,143.775269 1814.8898,132.610734 1814.8898,119.117563 C1814.8898,105.743802 1818.94964,94.6091179 1827.06942,85.7131782 C1835.1892,76.8172384 1845.5776,72.3693352 1858.23491,72.3693352 C1871.25044,72.3693352 1881.60898,76.5784248 1889.31084,84.9967302 C1897.01269,93.4150356 1900.86356,105.206457 1900.86356,120.371347 L1900.68445,122.162467 L1831.72633,122.162467 C1831.96515,130.759886 1834.83091,137.68548 1840.32371,142.939458 C1845.8165,148.193435 1852.38388,150.820385 1860.02603,150.820385 C1870.53398,150.820385 1878.77305,145.566486 1884.74348,135.05853 L1899.43066,142.22301 C1895.49018,149.626342 1890.02732,155.417572 1883.04192,159.596872 C1876.05651,163.776173 1868.14581,165.865792 1859.30958,165.865792 L1859.30958,165.865792 Z M1832.98012,108.549956 L1883.31058,108.549956 C1882.83295,102.460118 1880.35526,97.4151812 1875.87744,93.4149935 C1871.39961,89.4148059 1865.39942,87.414742 1857.87668,87.414742 C1851.66743,87.414742 1846.32398,89.3252508 1841.84616,93.1463256 C1837.36834,96.9674004 1834.41302,102.101893 1832.98012,108.549956 L1832.98012,108.549956 Z M1932.38727,163 L1915.90896,163 L1915.90896,75.235127 L1931.67082,75.235127 L1931.67082,89.5640859 L1932.38727,89.5640859 C1934.05899,84.9071509 1937.49193,80.936875 1942.68621,77.6531388 C1947.88048,74.3694026 1952.98512,72.7275592 1958.00028,72.7275592 C1962.77663,72.7275592 1966.83646,73.444 1970.1799,74.876903 L1965.16476,90.8178698 C1963.13481,89.9820096 1959.91083,89.5640859 1955.49271,89.5640859 C1949.28347,89.5640859 1943.88031,92.0716286 1939.28308,97.0867893 C1934.68585,102.10195 1932.38727,107.952883 1932.38727,114.639764 L1932.38727,163 Z" id="GDG-Cloud-Vancouver" fill="#777777"></path>
            </g>
        </g>
    </g>
</svg>