<?xml version="1.0" encoding="UTF-8"?>
<svg width="704px" height="200px" viewBox="0 0 704 200" version="1.1" xmlns="http://www.w3.org/2000/svg" xmlns:xlink="http://www.w3.org/1999/xlink">
    <!-- Generator: Sketch 3.7.2 (28276) - http://www.bohemiancoding.com/sketch -->
    <title>logo-white</title>
    <desc>Created with Sketch.</desc>
    <defs>
        <radialGradient cx="98.685446%" cy="97.8271186%" fx="98.685446%" fy="97.8271186%" r="324.704225%" id="radialGradient-1">
            <stop stop-color="#BF360C" stop-opacity="0.2" offset="0%"></stop>
            <stop stop-color="#BF360C" stop-opacity="0.02" offset="100%"></stop>
        </radialGradient>
        <radialGradient cx="162.728302%" cy="157.694517%" fx="162.728302%" fy="157.694517%" r="263.10566%" id="radialGradient-2">
            <stop stop-color="#263238" stop-opacity="0.2" offset="0%"></stop>
            <stop stop-color="#263238" stop-opacity="0.02" offset="100%"></stop>
        </radialGradient>
        <radialGradient cx="-1.25065013%" cy="0.781%" fx="-1.25065013%" fy="0.781%" r="167.971194%" id="radialGradient-3">
            <stop stop-color="#FFFFFF" stop-opacity="0.1" offset="0%"></stop>
            <stop stop-color="#FFFFFF" stop-opacity="0" offset="100%"></stop>
        </radialGradient>
    </defs>
    <g id="Page-1-Non-Edit" stroke="none" stroke-width="1" fill="none" fill-rule="evenodd">
        <g id="logo-white">
            <path d="M227.152111,47.5360783 C227.152111,56.4917224 224.495309,63.6262785 219.181627,68.9399606 C213.211198,75.2686158 205.360201,78.4328959 195.628401,78.4328959 C186.314531,78.4328959 178.433683,75.2089124 171.985619,68.7608487 C165.537555,62.3127849 162.313572,54.372233 162.313572,44.9389546 C162.313572,35.5056761 165.537555,27.5651242 171.985619,21.1170605 C178.433683,14.6689967 186.314531,11.4450132 195.628401,11.4450132 C200.34504,11.4450132 204.792943,12.2808608 208.972244,13.952581 C213.151545,15.6243013 216.58449,17.9825855 219.271183,21.0275045 L213.360488,26.9382 C211.390246,24.5500282 208.837926,22.684297 205.70345,21.3409504 C202.568975,19.9976038 199.210659,19.3259406 195.628401,19.3259406 C188.642999,19.3259406 182.732362,21.7439282 177.896314,26.579976 C173.119971,31.4757281 170.731835,37.5953264 170.731835,44.9389546 C170.731835,52.2825827 173.119971,58.402181 177.896314,63.2979331 C182.732362,68.1339809 188.642999,70.5519685 195.628401,70.5519685 C202.016761,70.5519685 207.330363,68.7608666 211.569368,65.1786089 C215.808373,61.5963513 218.256212,56.670821 218.912959,50.4018701 L195.628401,50.4018701 L195.628401,42.7000547 L226.704331,42.7000547 C227.002852,44.371775 227.152111,45.9837667 227.152111,47.5360783 L227.152111,47.5360783 Z M237.182382,77 L237.182382,12.8779091 L256.795144,12.8779091 C266.586648,12.8779091 274.452571,15.8332273 280.393148,21.7439524 C286.333726,27.6546775 289.30397,35.3862676 289.30397,44.9389546 C289.30397,54.5513459 286.333726,62.2978618 280.393148,68.1787347 C274.452571,74.0596076 266.586648,77 256.795144,77 L237.182382,77 Z M245.421533,20.7588365 L245.421533,69.1190726 L256.795144,69.1190726 C264.258181,69.1190726 270.138966,66.9846761 274.437675,62.7158191 C278.736384,58.4469621 280.885706,52.5213999 280.885706,44.9389546 C280.885706,37.4162135 278.736384,31.5055771 274.437675,27.206868 C270.138966,22.9081588 264.258181,20.7588365 256.795144,20.7588365 L245.421533,20.7588365 Z M360.769652,47.5360783 C360.769652,56.4917224 358.112851,63.6262785 352.799169,68.9399606 C346.828739,75.2686158 338.977742,78.4328959 329.245942,78.4328959 C319.932073,78.4328959 312.051224,75.2089124 305.60316,68.7608487 C299.155097,62.3127849 295.931113,54.372233 295.931113,44.9389546 C295.931113,35.5056761 299.155097,27.5651242 305.60316,21.1170605 C312.051224,14.6689967 319.932073,11.4450132 329.245942,11.4450132 C333.962582,11.4450132 338.410485,12.2808608 342.589785,13.952581 C346.769086,15.6243013 350.202031,17.9825855 352.888725,21.0275045 L346.978029,26.9382 C345.007787,24.5500282 342.455467,22.684297 339.320992,21.3409504 C336.186516,19.9976038 332.8282,19.3259406 329.245942,19.3259406 C322.26054,19.3259406 316.349904,21.7439282 311.513856,26.579976 C306.737512,31.4757281 304.349376,37.5953264 304.349376,44.9389546 C304.349376,52.2825827 306.737512,58.402181 311.513856,63.2979331 C316.349904,68.1339809 322.26054,70.5519685 329.245942,70.5519685 C335.634302,70.5519685 340.947904,68.7608666 345.186909,65.1786089 C349.425914,61.5963513 351.873753,56.670821 352.530501,50.4018701 L329.245942,50.4018701 L329.245942,42.7000547 L360.321872,42.7000547 C360.620393,44.371775 360.769652,45.9837667 360.769652,47.5360783 L360.769652,47.5360783 Z M390.502242,77 L390.502242,12.8779091 L410.115004,12.8779091 C419.906508,12.8779091 427.772431,15.8332273 433.713008,21.7439524 C439.653585,27.6546775 442.623829,35.3862676 442.623829,44.9389546 C442.623829,54.5513459 439.653585,62.2978618 433.713008,68.1787347 C427.772431,74.0596076 419.906508,77 410.115004,77 L390.502242,77 Z M398.741393,20.7588365 L398.741393,69.1190726 L410.115004,69.1190726 C417.578041,69.1190726 423.458825,66.9846761 427.757535,62.7158191 C432.056244,58.4469621 434.205566,52.5213999 434.205566,44.9389546 C434.205566,37.4162135 432.056244,31.5055771 427.757535,27.206868 C423.458825,22.9081588 417.578041,20.7588365 410.115004,20.7588365 L398.741393,20.7588365 Z M470.654855,78.4328959 C464.206791,78.4328959 458.893189,76.2238702 454.713888,71.8057524 C450.534588,67.3876347 448.444969,61.8053669 448.444969,55.0587817 C448.444969,48.3719008 450.474884,42.804559 454.534776,38.3565891 C458.594668,33.9086192 463.788864,31.6846676 470.117519,31.6846676 C476.625287,31.6846676 481.804557,33.7892124 485.655484,37.9983651 C489.506411,42.2075178 491.431845,48.1032284 491.431845,55.6856737 L491.34229,56.5812336 L456.863232,56.5812336 C456.982641,60.8799428 458.415522,64.3427399 461.16192,66.9697288 C463.908317,69.5967177 467.192004,70.9101925 471.013079,70.9101925 C476.267057,70.9101925 480.386591,68.283243 483.371806,63.0292651 L490.715398,66.6115048 C488.745156,70.313171 486.013725,73.2087859 482.521024,75.2984361 C479.028323,77.3880864 475.072973,78.4328959 470.654855,78.4328959 L470.654855,78.4328959 Z M457.490124,49.7749782 L482.655358,49.7749782 C482.416541,46.7300592 481.177696,44.2075906 478.938784,42.2074968 C476.699873,40.2074029 473.699778,39.207371 469.938407,39.207371 C466.833784,39.207371 464.162057,40.1626254 461.923146,42.0731628 C459.684235,43.9837002 458.206576,46.5509463 457.490124,49.7749782 L457.490124,49.7749782 Z M520.268875,77 L512.029724,77 L494.297637,33.1175635 L503.253237,33.1175635 L516.1493,67.1488408 L516.328412,67.1488408 L529.403586,33.1175635 L538.180074,33.1175635 L520.268875,77 Z M553.225481,49.5063102 L553.225481,77 L544.986329,77 L544.986329,12.8779091 L582.420734,12.8779091 L582.420734,20.7588365 L553.225481,20.7588365 L553.225481,41.8044948 L579.554942,41.8044948 L579.554942,49.5063102 L553.225481,49.5063102 Z M610.00398,78.4328959 C603.555916,78.4328959 598.242314,76.2238702 594.063013,71.8057524 C589.883713,67.3876347 587.794094,61.8053669 587.794094,55.0587817 C587.794094,48.3719008 589.824009,42.804559 593.883901,38.3565891 C597.943793,33.9086192 603.137989,31.6846676 609.466644,31.6846676 C615.974412,31.6846676 621.153682,33.7892124 625.004609,37.9983651 C628.855536,42.2075178 630.78097,48.1032284 630.78097,55.6856737 L630.691414,56.5812336 L596.212357,56.5812336 C596.331766,60.8799428 597.764647,64.3427399 600.511045,66.9697288 C603.257442,69.5967177 606.541129,70.9101925 610.362204,70.9101925 C615.616182,70.9101925 619.735716,68.283243 622.720931,63.0292651 L630.064522,66.6115048 C628.094281,70.313171 625.36285,73.2087859 621.870149,75.2984361 C618.377448,77.3880864 614.422098,78.4328959 610.00398,78.4328959 L610.00398,78.4328959 Z M596.839249,49.7749782 L622.004483,49.7749782 C621.765666,46.7300592 620.52682,44.2075906 618.287909,42.2074968 C616.048998,40.2074029 613.048903,39.207371 609.287532,39.207371 C606.182909,39.207371 603.511182,40.1626254 601.272271,42.0731628 C599.03336,43.9837002 597.555701,46.5509463 596.839249,49.7749782 L596.839249,49.7749782 Z M671.887171,64.820385 C671.887171,68.6414598 670.215476,71.8654433 666.872036,74.4924322 C663.528595,77.1194211 659.319505,78.4328959 654.244641,78.4328959 C649.826523,78.4328959 645.945802,77.2836055 642.602361,74.9849902 C639.258921,72.6863749 636.870785,69.6564274 635.437882,65.8950569 L642.781473,62.7605971 C643.856151,65.3875861 645.423365,67.4324274 647.483163,68.8951826 C649.542961,70.3579378 651.796764,71.0893045 654.244641,71.0893045 C656.871629,71.0893045 659.065729,70.5221222 660.827006,69.3877406 C662.588283,68.253359 663.468908,66.9100326 663.468908,65.3577209 C663.468908,62.5516191 661.319585,60.4918519 657.020876,59.1783574 L649.498173,57.2976816 C640.960459,55.148327 636.691666,51.0287925 636.691666,44.9389546 C636.691666,40.9387669 638.318584,37.7297092 641.572468,35.3116853 C644.826352,32.8936614 648.990664,31.6846676 654.065529,31.6846676 C657.946308,31.6846676 661.453882,32.6100703 664.588358,34.4609034 C667.722833,36.3117365 669.916933,38.7894275 671.170723,41.8940508 L663.827132,44.9389546 C662.991272,43.0881214 661.633019,41.640314 659.752334,40.5954889 C657.871649,39.5506638 655.767104,39.028259 653.438637,39.028259 C651.289282,39.028259 649.363847,39.5655896 647.662275,40.6402669 C645.960703,41.7149442 645.109929,43.0284189 645.109929,44.5807306 C645.109929,47.0883109 647.468213,48.8794129 652.184853,49.9540902 L658.811996,51.655654 C667.528823,53.8050086 671.887171,58.1932084 671.887171,64.820385 L671.887171,64.820385 Z M696.425513,77.7164479 C692.843256,77.7164479 689.873011,76.6119351 687.514692,74.4028762 C685.156372,72.1938173 683.947378,69.1190923 683.887674,65.1786089 L683.887674,40.6402669 L676.185859,40.6402669 L676.185859,33.1175635 L683.887674,33.1175635 L683.887674,19.6841646 L692.126825,19.6841646 L692.126825,33.1175635 L702.873545,33.1175635 L702.873545,40.6402669 L692.126825,40.6402669 L692.126825,62.4919292 C692.126825,65.4174396 692.694008,67.4025775 693.828389,68.4474027 C694.962771,69.4922278 696.246394,70.0146326 697.679297,70.0146326 C698.336044,70.0146326 698.977856,69.9400033 699.604751,69.7907426 C700.231646,69.6414818 700.813754,69.4474458 701.351093,69.2086286 L703.948217,76.55222 C701.798862,77.3283759 699.291319,77.7164479 696.425513,77.7164479 L696.425513,77.7164479 Z M205.03178,168.894805 C205.03178,174.507009 202.972013,179.014616 198.852417,182.41776 C194.673116,185.761201 189.598327,187.432896 183.627898,187.432896 C178.314216,187.432896 173.627499,185.880608 169.567607,182.775984 C165.507715,179.671361 162.701655,175.43242 161.149344,170.059033 L169.030271,166.835018 C169.56761,168.745555 170.313902,170.476953 171.269171,172.029265 C172.22444,173.581577 173.343878,174.909977 174.627521,176.014507 C175.911163,177.119036 177.329119,177.984736 178.88143,178.611631 C180.433742,179.238526 182.075586,179.551969 183.80701,179.551969 C187.568381,179.551969 190.643106,178.581788 193.031277,176.641399 C195.419449,174.701009 196.613517,172.118837 196.613517,168.894805 C196.613517,166.208112 195.628411,163.909531 193.658169,161.998994 C191.807336,160.148161 188.344539,158.357059 183.269674,156.625634 C178.135105,154.774801 174.940973,153.52103 173.687183,152.864283 C166.880893,149.401434 163.4778,144.296793 163.4778,137.550208 C163.4778,132.833569 165.358457,128.803589 169.119827,125.460149 C172.940902,122.116708 177.627619,120.445013 183.180118,120.445013 C188.07587,120.445013 192.314811,121.698785 195.897069,124.206365 C199.479327,126.654241 201.867463,129.728966 203.061548,133.430632 L195.359733,136.654648 C194.643282,134.266476 193.225326,132.281338 191.105823,130.699174 C188.986321,129.117011 186.404149,128.325941 183.35923,128.325941 C180.135198,128.325941 177.418694,129.221492 175.209635,131.01262 C173.000576,132.684341 171.896063,134.863515 171.896063,137.550208 C171.896063,139.759267 172.761762,141.669775 174.493187,143.281791 C176.403724,144.893807 180.55311,146.804316 186.94147,149.013375 C193.449238,151.222434 198.091177,153.924013 200.867427,157.118192 C203.643676,160.312372 205.03178,164.23787 205.03178,168.894805 L205.03178,168.894805 Z M233.241918,187.432896 C226.793854,187.432896 221.480252,185.22387 217.300951,180.805752 C213.121651,176.387635 211.032032,170.805367 211.032032,164.058782 C211.032032,157.371901 213.061947,151.804559 217.121839,147.356589 C221.181731,142.908619 226.375927,140.684668 232.704582,140.684668 C239.21235,140.684668 244.39162,142.789212 248.242547,146.998365 C252.093474,151.207518 254.018908,157.103228 254.018908,164.685674 L253.929352,165.581234 L219.450295,165.581234 C219.569704,169.879943 221.002585,173.34274 223.748983,175.969729 C226.49538,178.596718 229.779067,179.910192 233.600142,179.910192 C238.85412,179.910192 242.973654,177.283243 245.958869,172.029265 L253.30246,175.611505 C251.332219,179.313171 248.600788,182.208786 245.108087,184.298436 C241.615386,186.388086 237.660036,187.432896 233.241918,187.432896 L233.241918,187.432896 Z M220.077187,158.774978 L245.242421,158.774978 C245.003604,155.730059 243.764758,153.207591 241.525847,151.207497 C239.286936,149.207403 236.286841,148.207371 232.52547,148.207371 C229.420847,148.207371 226.74912,149.162625 224.510209,151.073163 C222.271298,152.9837 220.793639,155.550946 220.077187,158.774978 L220.077187,158.774978 Z M267.541863,172.566601 C267.541863,174.715956 268.45234,176.507058 270.273321,177.939961 C272.094302,179.372864 274.228699,180.089304 276.676575,180.089304 C280.139424,180.089304 283.229075,178.805681 285.94562,176.238397 C288.662165,173.671112 290.020418,170.656091 290.020418,167.193241 C287.453133,165.163296 283.870929,164.148338 279.273698,164.148338 C275.930258,164.148338 273.139124,164.954334 270.900213,166.56635 C268.661302,168.178365 267.541863,170.178429 267.541863,172.566601 L267.541863,172.566601 Z M278.199026,140.684668 C284.288864,140.684668 289.094988,142.311585 292.617541,145.565469 C296.140095,148.819353 297.901345,153.282182 297.901345,158.95409 L297.901345,186 L290.020418,186 L290.020418,179.910192 L289.662194,179.910192 C286.259049,184.925353 281.721591,187.432896 276.049683,187.432896 C271.213635,187.432896 267.16873,186.000014 263.914846,183.134208 C260.660962,180.268402 259.034044,176.686198 259.034044,172.387489 C259.034044,167.849963 260.750517,164.237907 264.183514,161.551214 C267.616511,158.864521 272.198746,157.521194 277.930359,157.521194 C282.826111,157.521194 286.85609,158.416745 290.020418,160.207874 L290.020418,158.327198 C290.020418,155.461392 288.886053,153.028479 286.61729,151.028385 C284.348527,149.028291 281.691725,148.028259 278.646806,148.028259 C274.049576,148.028259 270.407669,149.968619 267.720975,153.849399 L260.46694,149.282043 C264.467128,143.550431 270.377764,140.684668 278.199026,140.684668 L278.199026,140.684668 Z M340.798666,173.820385 C340.798666,177.64146 339.12697,180.865443 335.78353,183.492432 C332.440089,186.119421 328.231,187.432896 323.156135,187.432896 C318.738017,187.432896 314.857296,186.283605 311.513856,183.98499 C308.170415,181.686375 305.782279,178.656427 304.349376,174.895057 L311.692968,171.760597 C312.767645,174.387586 314.334859,176.432427 316.394657,177.895183 C318.454456,179.357938 320.708259,180.089304 323.156135,180.089304 C325.783124,180.089304 327.977224,179.522122 329.7385,178.387741 C331.499777,177.253359 332.380402,175.910033 332.380402,174.357721 C332.380402,171.551619 330.23108,169.491852 325.932371,168.178357 L318.409667,166.297682 C309.871953,164.148327 305.60316,160.028793 305.60316,153.938955 C305.60316,149.938767 307.230078,146.729709 310.483962,144.311685 C313.737846,141.893661 317.902158,140.684668 322.977023,140.684668 C326.857802,140.684668 330.365377,141.61007 333.499852,143.460903 C336.634328,145.311736 338.828427,147.789428 340.082218,150.894051 L332.738626,153.938955 C331.902766,152.088121 330.544514,150.640314 328.663828,149.595489 C326.783143,148.550664 324.678598,148.028259 322.350131,148.028259 C320.200776,148.028259 318.275342,148.56559 316.573769,149.640267 C314.872197,150.714944 314.021424,152.028419 314.021424,153.580731 C314.021424,156.088311 316.379708,157.879413 321.096347,158.95409 L327.723491,160.655654 C336.440317,162.805009 340.798666,167.193208 340.798666,173.820385 L340.798666,173.820385 Z M345.455577,164.058782 C345.455577,157.312197 347.575048,151.729929 351.814053,147.311811 C356.112762,142.893693 361.515919,140.684668 368.023687,140.684668 C374.531455,140.684668 379.904761,142.893693 384.143766,147.311811 C388.442475,151.729929 390.591798,157.312197 390.591798,164.058782 C390.591798,170.865071 388.442475,176.447339 384.143766,180.805752 C379.904761,185.22387 374.531455,187.432896 368.023687,187.432896 C361.515919,187.432896 356.112762,185.22387 351.814053,180.805752 C347.575048,176.387635 345.455577,170.805367 345.455577,164.058782 L345.455577,164.058782 Z M353.694728,164.058782 C353.694728,168.775421 355.067907,172.596438 357.814304,175.521949 C360.560702,178.447459 363.963795,179.910192 368.023687,179.910192 C372.083579,179.910192 375.486673,178.447459 378.233071,175.521949 C380.979468,172.596438 382.352646,168.775421 382.352646,164.058782 C382.352646,159.401847 380.979468,155.610681 378.233071,152.685171 C375.426969,149.699956 372.023875,148.207371 368.023687,148.207371 C364.0235,148.207371 360.620406,149.699956 357.814304,152.685171 C355.067907,155.610681 353.694728,159.401847 353.694728,164.058782 L353.694728,164.058782 Z M398.114501,142.117563 L405.995428,142.117563 L405.995428,148.207371 L406.353652,148.207371 C407.607442,146.058016 409.532877,144.266914 412.130014,142.834011 C414.727151,141.401108 417.428729,140.684668 420.234831,140.684668 C425.608218,140.684668 429.742678,142.22203 432.638336,145.296801 C435.533994,148.371572 436.981802,152.744846 436.981802,158.416754 L436.981802,186 L428.74265,186 L428.74265,158.95409 C428.563538,151.789575 424.951482,148.207371 417.906375,148.207371 C414.622639,148.207371 411.876283,149.535772 409.667224,152.192613 C407.458165,154.849454 406.353652,158.02866 406.353652,161.730326 L406.353652,186 L398.114501,186 L398.114501,142.117563 Z M503.969684,178.119073 L503.969684,186 L464.923272,186 L464.923272,177.760849 L480.774682,161.730326 C486.088364,156.297235 489.760123,152.222478 491.790069,149.505933 C493.820015,146.789388 494.834973,143.93855 494.834973,140.953336 C494.834973,138.266642 493.790164,135.968062 491.700513,134.057524 C489.610863,132.146987 486.92421,131.191732 483.640474,131.191732 C480.834372,131.191732 478.416385,132.02758 476.386439,133.6993 C474.356493,135.37102 473.043018,137.400936 472.445975,139.789108 L464.923272,136.744204 C466.117357,132.982833 468.415938,129.803627 471.819083,127.206491 C475.222228,124.609354 479.222355,123.310805 483.819586,123.310805 C489.372085,123.310805 493.999099,125.012352 497.700765,128.415497 C501.402431,131.818641 503.253237,135.997879 503.253237,140.953336 C503.253237,146.864061 499.999401,153.252324 493.491633,160.118318 L475.580435,178.119073 L503.969684,178.119073 Z M511.850612,155.37185 C511.850612,146.057981 514.149193,138.386094 518.746423,132.35596 C523.343654,126.325827 529.25429,123.310805 536.47851,123.310805 C543.702729,123.310805 549.613366,126.355678 554.210596,132.445516 C558.807827,138.47565 561.106408,146.117685 561.106408,155.37185 C561.106408,164.566312 558.807827,172.238198 554.210596,178.387741 C549.613366,184.417874 543.702729,187.432896 536.47851,187.432896 C529.25429,187.432896 523.343654,184.417874 518.746423,178.387741 C514.149193,172.238198 511.850612,164.566312 511.850612,155.37185 L511.850612,155.37185 Z M552.688145,155.37185 C552.688145,148.326744 551.19556,142.535514 548.210345,137.997988 C545.284835,133.460462 541.374262,131.191732 536.47851,131.191732 C531.582758,131.191732 527.672185,133.460462 524.746675,137.997988 C521.76146,142.535514 520.268875,148.326744 520.268875,155.37185 C520.268875,162.416957 521.76146,168.238038 524.746675,172.835269 C527.672185,177.313091 531.582758,179.551969 536.47851,179.551969 C541.374262,179.551969 545.284835,177.283239 548.210345,172.745713 C551.19556,168.148482 552.688145,162.357253 552.688145,155.37185 L552.688145,155.37185 Z M591.913669,124.743701 L591.913669,186 L583.674518,186 L583.674518,134.953084 L571.763571,140.147332 L568.629111,133.161964 L586.629866,124.743701 L591.913669,124.743701 Z M642.691917,133.161964 L612.959328,187.432896 L605.615736,183.671544 L634.004986,132.624628 L603.018613,132.624628 L603.197725,124.743701 L642.691917,124.743701 L642.691917,133.161964 Z" id="GDG-DevFest" fill="#777777"></path>
            <g id="XMLID_60_">
                <g id="XMLID_61_">
                    <g id="XMLID_62_">
                        <path d="M122.5,90.6 L70.1,0 L0,0 L57.8,100 L0,200 L70.1,200 L122.5,109.4 C125.8,103.6 125.8,96.4 122.5,90.6 L122.5,90.6 Z" id="XMLID_106_"></path>
                        <polygon id="XMLID_105_" fill="#FFC107" points="92.4 159.8 75.8 131.1 35.9 200 70.1 200 92.9 160.6"></polygon>
                        <path d="M122.5,90.6 L70.1,0 L0,0 L57.8,100 L0,200 L70.1,200 L122.5,109.4 C125.8,103.6 125.8,96.4 122.5,90.6 L122.5,90.6 Z" id="XMLID_104_"></path>
                        <polygon id="XMLID_103_" fill="#0F9D58" points="57.8 100 75.8 131.1 35.9 200 0 200"></polygon>
                        <path d="M122.5,90.6 L70.1,0 L0,0 L57.8,100 L0,200 L70.1,200 L122.5,109.4 C125.8,103.6 125.8,96.4 122.5,90.6 L122.5,90.6 Z" id="XMLID_102_"></path>
                        <polygon id="XMLID_101_" fill="#BF360C" opacity="0.2" points="70.1 198.4 36.8 198.4 35.9 200 70.1 200 92.9 160.6 92.4 159.8"></polygon>
                        <path d="M122.5,90.6 L70.1,0 L0,0 L57.8,100 L0,200 L70.1,200 L122.5,109.4 C125.8,103.6 125.8,96.4 122.5,90.6 L122.5,90.6 Z" id="XMLID_100_"></path>
                        <polygon id="XMLID_99_" fill="#263238" opacity="0.2" points="0.9 198.4 0 200 35.9 200 36.8 198.4"></polygon>
                        <path d="M122.5,90.6 L70.1,0 L0,0 L57.8,100 L0,200 L70.1,200 L122.5,109.4 C125.8,103.6 125.8,96.4 122.5,90.6 L122.5,90.6 Z" id="XMLID_98_"></path>
                        <polygon id="XMLID_96_" fill="#FFFFFF" opacity="0.2" points="0 200 0.9 200 58.3 100.8 57.8 100"></polygon>
                        <path d="M122.5,90.6 L70.1,0 L0,0 L57.8,100 L0,200 L70.1,200 L122.5,109.4 C125.8,103.6 125.8,96.4 122.5,90.6 L122.5,90.6 Z" id="XMLID_94_"></path>
                        <polygon id="XMLID_92_" fill="url(#radialGradient-1)" points="92.9 160.6 75.8 131.1 71.6 138.3"></polygon>
                        <path d="M122.5,90.6 L70.1,0 L0,0 L57.8,100 L0,200 L70.1,200 L122.5,109.4 C125.8,103.6 125.8,96.4 122.5,90.6 L122.5,90.6 Z" id="XMLID_90_"></path>
                        <polygon id="XMLID_89_" fill="url(#radialGradient-2)" points="71.6 138.3 75.8 131.1 57.8 100 49.3 114.8"></polygon>
                        <path d="M122.5,90.6 L70.1,0 L0,0 L57.8,100 L0,200 L70.1,200 L122.5,109.4 C125.8,103.6 125.8,96.4 122.5,90.6 L122.5,90.6 Z" id="XMLID_88_"></path>
                        <g id="XMLID_85_" fill="#4285F4">
                            <g id="XMLID_86_">
                                <polygon id="XMLID_87_" points="35.9 0 0 0 92.9 160.6 110.8 129.5"></polygon>
                            </g>
                        </g>
                        <path d="M122.5,90.6 L70.1,0 L0,0 L57.8,100 L0,200 L70.1,200 L122.5,109.4 C125.8,103.6 125.8,96.4 122.5,90.6 L122.5,90.6 Z" id="XMLID_84_"></path>
                        <path d="M122.5,109.4 C125.9,103.6 125.9,96.4 122.5,90.6 L70.1,0 L35.9,0 L110.8,129.5 L122.5,109.4 L122.5,109.4 Z" id="XMLID_83_" fill="#DB4437"></path>
                        <path d="M122.5,90.6 L70.1,0 L0,0 L57.8,100 L0,200 L70.1,200 L122.5,109.4 C125.8,103.6 125.8,96.4 122.5,90.6 L122.5,90.6 Z" id="XMLID_82_"></path>
                        <polygon id="XMLID_71_" fill="#1A237E" opacity="0.2" points="110.8 129.5 110.4 128.7 92.9 159 0.9 0 0 0 92.9 160.6 110.8 129.5"></polygon>
                        <path d="M122.5,90.6 L70.1,0 L0,0 L57.8,100 L0,200 L70.1,200 L122.5,109.4 C125.8,103.6 125.8,96.4 122.5,90.6 L122.5,90.6 Z" id="XMLID_69_"></path>
                        <path d="M70.1,1.6 L122.5,92.2 C124,94.9 124.8,97.8 125,100.8 C125.1,97.3 124.3,93.8 122.5,90.6 L70.1,0 L0,0 L0.9,1.6 L70.1,1.6 L70.1,1.6 Z" id="XMLID_67_" fill="#FFFFFF" opacity="0.2"></path>
                        <path d="M122.5,90.6 L70.1,0 L0,0 L57.8,100 L0,200 L70.1,200 L122.5,109.4 C125.8,103.6 125.8,96.4 122.5,90.6 L122.5,90.6 Z" id="XMLID_66_"></path>
                        <path d="M110.8,129.5 L122.4,109.4 C124.2,106.3 125,102.7 124.9,99.2 C124.8,102.2 124,105.1 122.4,107.8 L110.3,128.7 L110.8,129.5 L110.8,129.5 Z" id="XMLID_65_" fill="#3E2723" opacity="0.2"></path>
                        <path d="M122.5,90.6 L70.1,0 L0,0 L57.8,100 L0,200 L70.1,200 L122.5,109.4 C125.8,103.6 125.8,96.4 122.5,90.6 L122.5,90.6 Z" id="XMLID_64_"></path>
                        <path d="M122.5,90.6 L70.1,0 L0,0 L57.8,100 L0,200 L70.1,200 L122.5,109.4 C125.8,103.6 125.8,96.4 122.5,90.6 L122.5,90.6 Z" id="XMLID_63_" fill="url(#radialGradient-3)"></path>
                    </g>
                </g>
            </g>
        </g>
    </g>
</svg>